<svg xmlns="http://www.w3.org/2000/svg" viewBox="0 0 800 500">
  <defs>
    <linearGradient id="sky" x1="0" y1="0" x2="0" y2="1">
      <stop offset="0%" stop-color="#1a1a2e"/>
      <stop offset="60%" stop-color="#16213e"/>
      <stop offset="100%" stop-color="#0f3460"/>
    </linearGradient>
    <linearGradient id="gold-grad" x1="0" y1="0" x2="1" y2="1">
      <stop offset="0%" stop-color="#d4af37"/>
      <stop offset="50%" stop-color="#f5e6a3"/>
      <stop offset="100%" stop-color="#d4af37"/>
    </linearGradient>
    <linearGradient id="armor" x1="0" y1="0" x2="0" y2="1">
      <stop offset="0%" stop-color="#8b4513"/>
      <stop offset="50%" stop-color="#a0522d"/>
      <stop offset="100%" stop-color="#6b3410"/>
    </linearGradient>
    <linearGradient id="crimson" x1="0" y1="0" x2="0" y2="1">
      <stop offset="0%" stop-color="#c0392b"/>
      <stop offset="100%" stop-color="#8b0000"/>
    </linearGradient>
    <linearGradient id="shield-grad" x1="0" y1="0" x2="1" y2="1">
      <stop offset="0%" stop-color="#8b0000"/>
      <stop offset="50%" stop-color="#c0392b"/>
      <stop offset="100%" stop-color="#6b0000"/>
    </linearGradient>
    <radialGradient id="glow" cx="50%" cy="80%" r="60%">
      <stop offset="0%" stop-color="rgba(212,175,55,0.3)"/>
      <stop offset="100%" stop-color="rgba(212,175,55,0)"/>
    </radialGradient>
  </defs>

  <rect width="800" height="500" fill="url(#sky)"/>
  <rect width="800" height="500" fill="url(#glow)"/>

  <rect x="0" y="380" width="800" height="120" fill="#0a0a15" opacity="0.6"/>
  <ellipse cx="400" cy="400" rx="500" ry="40" fill="#1a1a2e" opacity="0.8"/>

  <!-- Back row soldiers (smaller, further away) -->
  <g opacity="0.4">
    <!-- Back row - 9 soldiers -->
    <g transform="translate(80,280) scale(0.6)">
      <rect x="-8" y="0" width="16" height="50" fill="url(#armor)" rx="3"/>
      <circle cx="0" cy="-8" r="10" fill="#deb887"/>
      <ellipse cx="0" cy="-18" rx="12" ry="8" fill="url(#crimson)"/>
      <g><animateTransform attributeName="transform" type="rotate" values="0 0 10;-20 0 10;0 0 10" dur="2.4s" begin="0.1s" repeatCount="indefinite" calcMode="spline" keySplines="0.4 0 0.2 1;0.4 0 0.2 1"/>
      <path d="M0,10 L-15,-65 L-18,-65 L-15,-75 L-12,-65 L-15,-65" stroke="url(#gold-grad)" stroke-width="2.5" fill="url(#gold-grad)"/></g>
    </g>
    <g transform="translate(170,275) scale(0.6)">
      <rect x="-8" y="0" width="16" height="50" fill="url(#armor)" rx="3"/>
      <circle cx="0" cy="-8" r="10" fill="#deb887"/>
      <ellipse cx="0" cy="-18" rx="12" ry="8" fill="url(#crimson)"/>
      <g><animateTransform attributeName="transform" type="rotate" values="0 0 10;-18 0 10;0 0 10" dur="2.6s" begin="0.4s" repeatCount="indefinite" calcMode="spline" keySplines="0.4 0 0.2 1;0.4 0 0.2 1"/>
      <path d="M0,10 L-12,-70 L-15,-70 L-12,-80 L-9,-70 L-12,-70" stroke="#888" stroke-width="2" fill="#aaa"/></g>
    </g>
    <g transform="translate(260,278) scale(0.6)">
      <rect x="-8" y="0" width="16" height="50" fill="url(#armor)" rx="3"/>
      <circle cx="0" cy="-8" r="10" fill="#deb887"/>
      <ellipse cx="0" cy="-18" rx="12" ry="8" fill="url(#crimson)"/>
      <g><animateTransform attributeName="transform" type="rotate" values="0 2 10;-22 2 10;0 2 10" dur="2.3s" begin="0.7s" repeatCount="indefinite" calcMode="spline" keySplines="0.4 0 0.2 1;0.4 0 0.2 1"/>
      <path d="M2,10 L-8,-68 L-11,-68 L-8,-78 L-5,-68 L-8,-68" stroke="url(#gold-grad)" stroke-width="2.5" fill="url(#gold-grad)"/></g>
    </g>
    <g transform="translate(350,273) scale(0.6)">
      <rect x="-8" y="0" width="16" height="50" fill="url(#armor)" rx="3"/>
      <circle cx="0" cy="-8" r="10" fill="#deb887"/>
      <ellipse cx="0" cy="-18" rx="12" ry="8" fill="url(#crimson)"/>
      <g><animateTransform attributeName="transform" type="rotate" values="0 0 10;-17 0 10;0 0 10" dur="2.5s" begin="0.2s" repeatCount="indefinite" calcMode="spline" keySplines="0.4 0 0.2 1;0.4 0 0.2 1"/>
      <path d="M0,10 L-14,-66 L-17,-66 L-14,-76 L-11,-66 L-14,-66" stroke="#888" stroke-width="2" fill="#aaa"/></g>
    </g>
    <g transform="translate(440,276) scale(0.6)">
      <rect x="-8" y="0" width="16" height="50" fill="url(#armor)" rx="3"/>
      <circle cx="0" cy="-8" r="10" fill="#deb887"/>
      <ellipse cx="0" cy="-18" rx="12" ry="8" fill="url(#crimson)"/>
      <g><animateTransform attributeName="transform" type="rotate" values="0 0 10;-21 0 10;0 0 10" dur="2.7s" begin="0.5s" repeatCount="indefinite" calcMode="spline" keySplines="0.4 0 0.2 1;0.4 0 0.2 1"/>
      <path d="M0,10 L-10,-72 L-13,-72 L-10,-82 L-7,-72 L-10,-72" stroke="url(#gold-grad)" stroke-width="2.5" fill="url(#gold-grad)"/></g>
    </g>
    <g transform="translate(530,274) scale(0.6)">
      <rect x="-8" y="0" width="16" height="50" fill="url(#armor)" rx="3"/>
      <circle cx="0" cy="-8" r="10" fill="#deb887"/>
      <ellipse cx="0" cy="-18" rx="12" ry="8" fill="url(#crimson)"/>
      <g><animateTransform attributeName="transform" type="rotate" values="0 0 10;-19 0 10;0 0 10" dur="2.4s" begin="0.8s" repeatCount="indefinite" calcMode="spline" keySplines="0.4 0 0.2 1;0.4 0 0.2 1"/>
      <path d="M0,10 L-13,-67 L-16,-67 L-13,-77 L-10,-67 L-13,-67" stroke="#888" stroke-width="2" fill="#aaa"/></g>
    </g>
    <g transform="translate(620,279) scale(0.6)">
      <rect x="-8" y="0" width="16" height="50" fill="url(#armor)" rx="3"/>
      <circle cx="0" cy="-8" r="10" fill="#deb887"/>
      <ellipse cx="0" cy="-18" rx="12" ry="8" fill="url(#crimson)"/>
      <g><animateTransform attributeName="transform" type="rotate" values="0 0 10;-20 0 10;0 0 10" dur="2.5s" begin="0.3s" repeatCount="indefinite" calcMode="spline" keySplines="0.4 0 0.2 1;0.4 0 0.2 1"/>
      <path d="M0,10 L-11,-69 L-14,-69 L-11,-79 L-8,-69 L-11,-69" stroke="url(#gold-grad)" stroke-width="2.5" fill="url(#gold-grad)"/></g>
    </g>
    <g transform="translate(710,277) scale(0.6)">
      <rect x="-8" y="0" width="16" height="50" fill="url(#armor)" rx="3"/>
      <circle cx="0" cy="-8" r="10" fill="#deb887"/>
      <ellipse cx="0" cy="-18" rx="12" ry="8" fill="url(#crimson)"/>
      <g><animateTransform attributeName="transform" type="rotate" values="0 0 10;-16 0 10;0 0 10" dur="2.6s" begin="0.6s" repeatCount="indefinite" calcMode="spline" keySplines="0.4 0 0.2 1;0.4 0 0.2 1"/>
      <path d="M0,10 L-15,-64 L-18,-64 L-15,-74 L-12,-64 L-15,-64" stroke="#888" stroke-width="2" fill="#aaa"/></g>
    </g>
  </g>

  <!-- Middle row soldiers -->
  <g opacity="0.7">
    <g transform="translate(120,310) scale(0.75)">
      <rect x="-10" y="0" width="20" height="60" fill="url(#armor)" rx="3"/>
      <circle cx="0" cy="-10" r="12" fill="#deb887"/>
      <ellipse cx="0" cy="-22" rx="14" ry="9" fill="url(#crimson)"/>
      <rect x="-14" y="-4" width="6" height="24" fill="url(#crimson)" rx="2"/>
      <g><animateTransform attributeName="transform" type="rotate" values="0 -2 12;-22 -2 12;0 -2 12" dur="2.5s" begin="0.15s" repeatCount="indefinite" calcMode="spline" keySplines="0.4 0 0.2 1;0.4 0 0.2 1"/>
      <path d="M-2,12 L-18,-80 L-22,-80 L-18,-92 L-14,-80 L-18,-80" stroke="url(#gold-grad)" stroke-width="3" fill="url(#gold-grad)"/></g>
    </g>
    <g transform="translate(230,305) scale(0.75)">
      <rect x="-10" y="0" width="20" height="60" fill="url(#armor)" rx="3"/>
      <circle cx="0" cy="-10" r="12" fill="#deb887"/>
      <ellipse cx="0" cy="-22" rx="14" ry="9" fill="url(#crimson)"/>
      <g><animateTransform attributeName="transform" type="rotate" values="0 0 12;-20 0 12;0 0 12" dur="2.7s" begin="0.5s" repeatCount="indefinite" calcMode="spline" keySplines="0.4 0 0.2 1;0.4 0 0.2 1"/>
      <path d="M0,12 L-16,-85 L-20,-85 L-16,-97 L-12,-85 L-16,-85" stroke="#999" stroke-width="2.5" fill="#bbb"/></g>
    </g>
    <g transform="translate(340,308) scale(0.75)">
      <rect x="-10" y="0" width="20" height="60" fill="url(#armor)" rx="3"/>
      <circle cx="0" cy="-10" r="12" fill="#deb887"/>
      <ellipse cx="0" cy="-22" rx="14" ry="9" fill="url(#crimson)"/>
      <rect x="-16" y="5" width="8" height="30" fill="url(#shield-grad)" rx="2"/>
      <g><animateTransform attributeName="transform" type="rotate" values="0 2 12;-23 2 12;0 2 12" dur="2.3s" begin="0.35s" repeatCount="indefinite" calcMode="spline" keySplines="0.4 0 0.2 1;0.4 0 0.2 1"/>
      <path d="M2,12 L-14,-82 L-18,-82 L-14,-94 L-10,-82 L-14,-82" stroke="url(#gold-grad)" stroke-width="3" fill="url(#gold-grad)"/></g>
    </g>
    <g transform="translate(450,303) scale(0.75)">
      <rect x="-10" y="0" width="20" height="60" fill="url(#armor)" rx="3"/>
      <circle cx="0" cy="-10" r="12" fill="#deb887"/>
      <ellipse cx="0" cy="-22" rx="14" ry="9" fill="url(#crimson)"/>
      <g><animateTransform attributeName="transform" type="rotate" values="0 0 12;-19 0 12;0 0 12" dur="2.6s" begin="0.7s" repeatCount="indefinite" calcMode="spline" keySplines="0.4 0 0.2 1;0.4 0 0.2 1"/>
      <path d="M0,12 L-15,-83 L-19,-83 L-15,-95 L-11,-83 L-15,-83" stroke="#999" stroke-width="2.5" fill="#bbb"/></g>
    </g>
    <g transform="translate(560,307) scale(0.75)">
      <rect x="-10" y="0" width="20" height="60" fill="url(#armor)" rx="3"/>
      <circle cx="0" cy="-10" r="12" fill="#deb887"/>
      <ellipse cx="0" cy="-22" rx="14" ry="9" fill="url(#crimson)"/>
      <g><animateTransform attributeName="transform" type="rotate" values="0 -1 12;-21 -1 12;0 -1 12" dur="2.4s" begin="0.25s" repeatCount="indefinite" calcMode="spline" keySplines="0.4 0 0.2 1;0.4 0 0.2 1"/>
      <path d="M-1,12 L-17,-84 L-21,-84 L-17,-96 L-13,-84 L-17,-84" stroke="url(#gold-grad)" stroke-width="3" fill="url(#gold-grad)"/></g>
    </g>
    <g transform="translate(670,310) scale(0.75)">
      <rect x="-10" y="0" width="20" height="60" fill="url(#armor)" rx="3"/>
      <circle cx="0" cy="-10" r="12" fill="#deb887"/>
      <ellipse cx="0" cy="-22" rx="14" ry="9" fill="url(#crimson)"/>
      <rect x="-16" y="5" width="8" height="30" fill="url(#shield-grad)" rx="2"/>
      <g><animateTransform attributeName="transform" type="rotate" values="0 0 12;-18 0 12;0 0 12" dur="2.8s" begin="0.6s" repeatCount="indefinite" calcMode="spline" keySplines="0.4 0 0.2 1;0.4 0 0.2 1"/>
      <path d="M0,12 L-13,-81 L-17,-81 L-13,-93 L-9,-81 L-13,-81" stroke="#999" stroke-width="2.5" fill="#bbb"/></g>
    </g>
  </g>

  <!-- Front row soldiers (largest, closest) -->
  <g>
    <!-- Soldier 1 - with shield and raised sword -->
    <g transform="translate(100,340)">
      <rect x="-12" y="0" width="24" height="70" fill="url(#armor)" rx="4"/>
      <rect x="-6" y="0" width="12" height="70" fill="#a0522d" opacity="0.3" rx="2"/>
      <circle cx="0" cy="-12" r="14" fill="#deb887"/>
      <ellipse cx="0" cy="-26" rx="16" ry="10" fill="url(#crimson)"/>
      <rect x="0" y="-30" width="3" height="12" fill="url(#gold-grad)"/>
      <rect x="-20" y="5" width="10" height="40" fill="url(#shield-grad)" rx="3"/>
      <rect x="-19" y="15" width="8" height="2" fill="url(#gold-grad)"/>
      <g><animateTransform attributeName="transform" type="rotate" values="0 4 10;-25 4 10;0 4 10" dur="2.5s" begin="0s" repeatCount="indefinite" calcMode="spline" keySplines="0.4 0 0.2 1;0.4 0 0.2 1"/>
      <path d="M4,10 L-20,-95 L-24,-95 L-20,-110 L-16,-95 L-20,-95" stroke="url(#gold-grad)" stroke-width="3.5" fill="url(#gold-grad)"/></g>
    </g>

    <!-- Soldier 2 - spear raised -->
    <g transform="translate(210,335)">
      <rect x="-12" y="0" width="24" height="70" fill="url(#armor)" rx="4"/>
      <circle cx="0" cy="-12" r="14" fill="#deb887"/>
      <ellipse cx="0" cy="-26" rx="16" ry="10" fill="url(#crimson)"/>
      <rect x="0" y="-30" width="3" height="12" fill="url(#gold-grad)"/>
      <g><animateTransform attributeName="transform" type="rotate" values="0 2 10;-23 2 10;0 2 10" dur="2.7s" begin="0.3s" repeatCount="indefinite" calcMode="spline" keySplines="0.4 0 0.2 1;0.4 0 0.2 1"/>
      <path d="M2,10 L-18,-100 L-22,-100 L-18,-115 L-14,-100 L-18,-100" stroke="#aaa" stroke-width="3" fill="#ccc"/></g>
    </g>

    <!-- Soldier 3 - sword raised high -->
    <g transform="translate(310,338)">
      <rect x="-12" y="0" width="24" height="70" fill="url(#armor)" rx="4"/>
      <circle cx="0" cy="-12" r="14" fill="#deb887"/>
      <ellipse cx="0" cy="-26" rx="16" ry="10" fill="url(#crimson)"/>
      <rect x="0" y="-30" width="3" height="12" fill="url(#gold-grad)"/>
      <rect x="-20" y="5" width="10" height="40" fill="url(#shield-grad)" rx="3"/>
      <rect x="-19" y="15" width="8" height="2" fill="url(#gold-grad)"/>
      <g><animateTransform attributeName="transform" type="rotate" values="0 3 10;-24 3 10;0 3 10" dur="2.3s" begin="0.55s" repeatCount="indefinite" calcMode="spline" keySplines="0.4 0 0.2 1;0.4 0 0.2 1"/>
      <path d="M3,10 L-15,-98 L-19,-98 L-15,-113 L-11,-98 L-15,-98" stroke="url(#gold-grad)" stroke-width="3.5" fill="url(#gold-grad)"/></g>
    </g>

    <!-- Center soldier (leader)- largest, most detailed -->
    <g transform="translate(400,330)">
      <rect x="-14" y="0" width="28" height="80" fill="url(#armor)" rx="4"/>
      <rect x="-8" y="0" width="16" height="80" fill="#a0522d" opacity="0.3" rx="2"/>
      <rect x="-16" y="68" width="14" height="12" fill="#6b3410" rx="2"/>
      <rect x="2" y="68" width="14" height="12" fill="#6b3410" rx="2"/>
      <circle cx="0" cy="-14" r="16" fill="#deb887"/>
      <ellipse cx="0" cy="-30" rx="18" ry="12" fill="url(#crimson)"/>
      <rect x="-2" y="-36" width="4" height="16" fill="url(#gold-grad)"/>
      <circle cx="0" cy="-36" r="3" fill="url(#gold-grad)"/>
      <rect x="-24" y="5" width="12" height="45" fill="url(#shield-grad)" rx="4"/>
      <rect x="-23" y="18" width="10" height="3" fill="url(#gold-grad)"/>
      <circle cx="-18" cy="28" r="4" fill="url(#gold-grad)" opacity="0.6"/>
      <g><animateTransform attributeName="transform" type="rotate" values="0 6 12;-26 6 12;0 6 12" dur="2.5s" begin="0.1s" repeatCount="indefinite" calcMode="spline" keySplines="0.4 0 0.2 1;0.4 0 0.2 1"/>
      <path d="M6,12 L-22,-115 L-27,-115 L-22,-132 L-17,-115 L-22,-115" stroke="url(#gold-grad)" stroke-width="4" fill="url(#gold-grad)"/>
      <line x1="-22" y1="-125" x2="-22" y2="-115" stroke="url(#gold-grad)" stroke-width="1.5"/></g>
    </g>

    <!-- Soldier 5- sword raised -->
    <g transform="translate(490,338)">
      <rect x="-12" y="0" width="24" height="70" fill="url(#armor)" rx="4"/>
      <circle cx="0" cy="-12" r="14" fill="#deb887"/>
      <ellipse cx="0" cy="-26" rx="16" ry="10" fill="url(#crimson)"/>
      <rect x="0" y="-30" width="3" height="12" fill="url(#gold-grad)"/>
      <g><animateTransform attributeName="transform" type="rotate" values="0 3 10;-22 3 10;0 3 10" dur="2.6s" begin="0.4s" repeatCount="indefinite" calcMode="spline" keySplines="0.4 0 0.2 1;0.4 0 0.2 1"/>
      <path d="M3,10 L-17,-97 L-21,-97 L-17,-112 L-13,-97 L-17,-97" stroke="url(#gold-grad)" stroke-width="3.5" fill="url(#gold-grad)"/></g>
    </g>

    <!-- Soldier 6 - spear -->
    <g transform="translate(590,335)">
      <rect x="-12" y="0" width="24" height="70" fill="url(#armor)" rx="4"/>
      <circle cx="0" cy="-12" r="14" fill="#deb887"/>
      <ellipse cx="0" cy="-26" rx="16" ry="10" fill="url(#crimson)"/>
      <rect x="0" y="-30" width="3" height="12" fill="url(#gold-grad)"/>
      <rect x="-20" y="5" width="10" height="40" fill="url(#shield-grad)" rx="3"/>
      <g><animateTransform attributeName="transform" type="rotate" values="0 2 10;-24 2 10;0 2 10" dur="2.4s" begin="0.65s" repeatCount="indefinite" calcMode="spline" keySplines="0.4 0 0.2 1;0.4 0 0.2 1"/>
      <path d="M2,10 L-16,-102 L-20,-102 L-16,-117 L-12,-102 L-16,-102" stroke="#aaa" stroke-width="3" fill="#ccc"/></g>
    </g>

    <!-- Soldier 7 - raised sword -->
    <g transform="translate(700,340)">
      <rect x="-12" y="0" width="24" height="70" fill="url(#armor)" rx="4"/>
      <circle cx="0" cy="-12" r="14" fill="#deb887"/>
      <ellipse cx="0" cy="-26" rx="16" ry="10" fill="url(#crimson)"/>
      <rect x="0" y="-30" width="3" height="12" fill="url(#gold-grad)"/>
      <g><animateTransform attributeName="transform" type="rotate" values="0 4 10;-23 4 10;0 4 10" dur="2.8s" begin="0.2s" repeatCount="indefinite" calcMode="spline" keySplines="0.4 0 0.2 1;0.4 0 0.2 1"/>
      <path d="M4,10 L-18,-96 L-22,-96 L-18,-111 L-14,-96 L-18,-96" stroke="url(#gold-grad)" stroke-width="3.5" fill="url(#gold-grad)"/></g>
    </g>
  </g>

  <!-- Dust/atmosphere at the bottom -->
  <rect x="0" y="420" width="800" height="80" fill="url(#sky)" opacity="0.4"/>

  <!-- Stars in the sky -->
  <circle cx="50" cy="30" r="1.5" fill="#f5e6a3" opacity="0.6"/>
  <circle cx="150" cy="55" r="1" fill="#f5e6a3" opacity="0.4"/>
  <circle cx="280" cy="20" r="1.5" fill="#f5e6a3" opacity="0.5"/>
  <circle cx="380" cy="45" r="1" fill="#f5e6a3" opacity="0.3"/>
  <circle cx="520" cy="25" r="1.5" fill="#f5e6a3" opacity="0.6"/>
  <circle cx="650" cy="50" r="1" fill="#f5e6a3" opacity="0.4"/>
  <circle cx="750" cy="15" r="1.5" fill="#f5e6a3" opacity="0.5"/>
  <circle cx="700" cy="60" r="1" fill="#f5e6a3" opacity="0.3"/>
  <circle cx="430" cy="70" r="1" fill="#f5e6a3" opacity="0.3"/>
</svg>
